<svg xmlns="http://www.w3.org/2000/svg" xmlns:xlink="http://www.w3.org/1999/xlink" width="48" height="48"><defs><linearGradient id="b" x1="992.183" x2="1019.298" y1="516.081" y2="545.959" gradientTransform="translate(-1522.705 211.342) scale(1.53785)" gradientUnits="userSpaceOnUse" xlink:href="#a"/><linearGradient id="a"><stop offset="0" stop-color="#ff1679"/><stop offset="1" stop-color="#ff770b"/></linearGradient></defs><g transform="translate(0 -1004.362)"><rect width="48" height="48" y="1004.362" fill="url(#b)" rx="10.144" ry="10.144"/><path style="line-height:normal;text-indent:0;text-align:start;text-decoration-line:none;text-transform:none;block-progression:tb" fill="#fff" d="M22.004 1012.364v2h1v-2zm-7.354.937-.707.709 1.414 1.414.707-.707zm14.647 0-1.414 1.416.707.707 1.414-1.414zm-3.916 3.055c.917 0 1.834.36 2.543 1.08a3.68 3.68 0 0 1 0 5.176l-2.897 2.937-.023.023v-1.707c0-1.376-1.124-2.5-2.5-2.5-1.522 0-2.5 1.154-2.5 2.5v1.756l-.065-.066-2.898-2.942a3.68 3.68 0 0 1 0-5.175 3.548 3.548 0 0 1 5.086 0 .5.5 0 0 0 .71 0 3.562 3.562 0 0 1 2.544-1.08zm-11.387.97-1.998.037.018 1 2-.037zm19.008.025-2 .012.006 1 2-.012zm-20.498 4.512v1h2v-1zm18 0v1h2v-1zm-8 .5c.84 0 1.5.66 1.5 1.5v6a.5.5 0 0 0 .5.5h10.25c.663 0 1.25.627 1.25 1.5v2.02a9.498 9.498 0 0 1-14.248 8.207h-.002a9.502 9.502 0 0 1-4.744-8.024l-.006-.05v-.153c0-.873.587-1.5 1.25-1.5h2.25a.5.5 0 0 0 .5-.5v-8c0-.84.66-1.5 1.5-1.5zm-5.934 3.666-1.416 1.414.71.707 1.413-1.414zm10.809 0-.707.707 1.414 1.414.707-.707z" color="#000" font-family="sans-serif" font-weight="400" overflow="visible"/></g></svg>